<svg width="1008" height="316" viewBox="0 0 1008 316" fill="none" xmlns="http://www.w3.org/2000/svg">
<path opacity="0.0416667" d="M858.28 653.338C931.528 496.258 817.667 288.137 603.965 188.486C390.263 88.8351 78.2749 357.406 5.02731 514.486" stroke="#E4572E"/>
<path opacity="0.0833333" d="M863.193 633.292C922.472 470.425 790.905 273.02 569.332 192.373C347.758 111.727 60.3644 406.468 1.08596 569.334" stroke="#E4572E"/>
<path opacity="0.125" d="M865.231 611.882C910.089 444.469 761.818 259.281 534.059 198.253C306.3 137.225 45.688 455.892 0.829863 623.305" stroke="#E4572E"/>
<path opacity="0.166667" d="M864.289 589.361C894.385 418.675 730.538 247.115 498.327 206.17C266.115 165.224 34.2689 505.393 4.17242 676.078" stroke="#E4572E"/>
<path opacity="0.208333" d="M860.281 565.994C875.387 393.335 697.211 236.708 462.314 216.157C227.418 195.606 26.1015 554.687 10.9958 727.346" stroke="#E4572E"/>
<path opacity="0.25" d="M853.146 542.052C853.146 368.733 661.997 228.231 426.203 228.231C190.409 228.231 21.1548 603.491 21.1548 776.809" stroke="#E4572E"/>
<path opacity="0.291667" d="M842.843 517.808C827.737 345.149 625.07 221.841 390.174 242.392C155.277 262.943 19.3731 651.526 34.4788 824.185" stroke="#E4572E"/>
<path opacity="0.333333" d="M829.362 493.542C799.266 322.856 586.623 217.681 354.411 258.626C122.199 299.571 20.6798 698.521 50.7763 869.207" stroke="#E4572E"/>
<path opacity="0.375" d="M812.713 469.529C767.855 302.116 546.855 215.874 319.096 276.902C91.3362 337.93 24.9736 744.209 69.8318 911.622" stroke="#E4572E"/>
<path opacity="0.416667" d="M792.925 446.044C733.647 283.177 505.971 216.525 284.397 297.171C62.8233 377.817 32.1229 788.335 91.4013 951.201" stroke="#E4572E"/>
<path opacity="0.458333" d="M770.059 423.359C696.811 266.279 464.193 219.723 250.491 319.374C36.789 419.025 41.9844 830.656 115.232 987.736" stroke="#E4572E"/>
<path opacity="0.5" d="M744.196 401.74C657.537 251.642 421.746 225.538 217.542 343.435C13.3387 461.332 54.3903 870.944 141.05 1021.04" stroke="#E4572E"/>
<path opacity="0.541667" d="M715.444 381.443C616.033 239.469 378.864 234.014 185.713 369.26C-7.43805 504.506 69.1574 908.981 168.569 1050.96" stroke="#E4572E"/>
<path opacity="0.583333" d="M683.923 362.716C572.516 229.946 335.774 245.183 155.146 396.748C-25.4829 548.314 86.0734 944.574 197.48 1077.34" stroke="#E4572E"/>
<path opacity="0.625" d="M649.784 345.793C527.229 223.238 292.717 259.05 125.985 425.782C-40.7464 592.513 104.922 977.543 227.477 1100.1" stroke="#E4572E"/>
<path opacity="0.666667" d="M613.194 330.896C480.425 219.489 249.925 275.605 98.3599 456.233C-53.2055 636.862 125.466 1007.73 258.236 1119.14" stroke="#E4572E"/>
<path opacity="0.708333" d="M574.34 318.231C432.365 218.82 207.634 294.81 72.3881 487.962C-62.8577 681.113 147.457 1035 289.431 1134.41" stroke="#E4572E"/>
<path opacity="0.75" d="M533.42 307.987C383.322 221.327 166.068 316.616 48.1715 520.819C-69.7254 725.023 170.632 1059.23 320.731 1145.89" stroke="#E4572E"/>
<path opacity="0.791667" d="M490.658 300.335C333.578 227.087 125.457 340.948 25.8057 554.649C-73.8451 768.351 194.726 1080.34 351.806 1153.59" stroke="#E4572E"/>
<path opacity="0.833333" d="M446.287 295.423C283.421 236.145 86.0149 367.711 5.36861 589.285C-75.2777 810.859 219.463 1098.25 382.329 1157.53" stroke="#E4572E"/>
<path opacity="0.875" d="M400.549 293.386C233.136 248.527 47.9481 396.798 -13.0799 624.558C-74.1078 852.317 244.559 1112.93 411.972 1157.79" stroke="#E4572E"/>
<path opacity="0.916667" d="M353.7 294.327C183.014 264.23 11.4534 428.077 -29.4918 660.289C-70.4369 892.5 269.731 1124.35 440.417 1154.44" stroke="#E4572E"/>
<path opacity="0.958333" d="M306.007 298.334C133.348 283.229 -23.2797 461.404 -43.8305 696.301C-64.3813 931.198 294.699 1132.51 467.358 1147.62" stroke="#E4572E"/>
<path d="M257.737 305.47C84.4185 305.47 -56.084 496.618 -56.084 732.412C-56.084 968.206 319.176 1137.46 492.495 1137.46" stroke="#E4572E"/>
</svg>
