<svg width="655" height="166" viewBox="0 0 655 166" fill="none" xmlns="http://www.w3.org/2000/svg">
<path opacity="0.416667" d="M955.463 651.743C896.185 814.61 668.509 881.262 446.935 800.616C225.361 719.969 194.661 309.452 253.939 146.586" stroke="#027EF4"/>
<path opacity="0.458333" d="M932.598 674.428C859.35 831.508 626.732 878.063 413.03 778.413C199.328 678.762 204.523 267.131 277.771 110.051" stroke="#027EF4"/>
<path opacity="0.5" d="M906.735 696.046C820.075 846.145 584.284 872.249 380.081 754.352C175.877 636.455 216.929 226.843 303.588 76.745" stroke="#027EF4"/>
<path opacity="0.541667" d="M877.984 716.344C778.573 858.319 541.404 863.773 348.253 728.527C155.102 593.281 231.697 188.806 331.109 46.8318" stroke="#027EF4"/>
<path opacity="0.583333" d="M846.463 735.071C735.056 867.841 498.314 852.604 317.685 701.038C137.057 549.473 248.613 153.213 360.02 20.4428" stroke="#027EF4"/>
<path opacity="0.625" d="M812.323 751.994C689.768 874.549 455.255 838.737 288.524 672.005C121.792 505.274 267.46 120.244 390.015 -2.31074" stroke="#027EF4"/>
<path opacity="0.666667" d="M775.733 766.89C642.964 878.297 412.464 822.182 260.899 641.554C109.334 460.925 288.005 90.0562 420.775 -21.3508" stroke="#027EF4"/>
<path opacity="0.708333" d="M736.879 779.556C594.905 878.967 370.173 802.976 234.928 609.825C99.6818 416.674 309.997 62.7889 451.971 -36.6225" stroke="#027EF4"/>
<path opacity="0.75" d="M695.958 789.8C545.86 876.459 328.607 781.171 210.71 576.968C92.8127 372.764 333.17 38.5555 483.269 -48.1038" stroke="#027EF4"/>
<path opacity="0.791667" d="M653.197 797.452C496.117 870.7 287.996 756.839 188.345 543.137C88.694 329.436 357.265 17.4473 514.345 -55.8003" stroke="#027EF4"/>
<path opacity="0.833333" d="M608.826 802.364C445.96 861.642 248.554 730.076 167.908 508.502C87.2614 286.928 382.002 -0.465175 544.868 -59.7436" stroke="#027EF4"/>
<path opacity="0.875" d="M563.088 804.401C395.675 849.259 210.487 700.989 149.459 473.229C88.4312 245.47 407.098 -15.1418 574.511 -60" stroke="#027EF4"/>
<path opacity="0.916667" d="M516.238 803.46C345.553 833.557 173.992 669.71 133.047 437.498C92.1016 205.286 432.27 -26.5597 602.956 -56.6562" stroke="#027EF4"/>
<path opacity="0.958333" d="M468.546 799.453C295.887 814.558 139.259 636.382 118.709 401.486C98.1577 166.589 457.238 -34.7271 629.897 -49.8328" stroke="#027EF4"/>
<path d="M420.276 792.317C246.958 792.317 106.455 601.168 106.455 365.375C106.455 129.581 481.715 -39.6736 655.034 -39.6736" stroke="#027EF4"/>
</svg>
