<svg width="998" height="316" viewBox="0 0 998 316" fill="none" xmlns="http://www.w3.org/2000/svg">
<path opacity="0.0416667" d="M1020.28 -93.5511C1093.53 63.5289 979.667 271.65 765.965 371.301C552.263 470.952 240.275 202.381 167.027 45.3007" stroke="#027EF4"/>
<path opacity="0.0833333" d="M1025.19 -73.5047C1084.47 89.3615 952.905 286.767 731.332 367.414C509.758 448.06 222.364 153.319 163.086 -9.54713" stroke="#027EF4"/>
<path opacity="0.125" d="M1027.23 -52.0953C1072.09 115.318 923.818 300.506 696.059 361.533C468.3 422.561 207.688 103.894 162.83 -63.5187" stroke="#027EF4"/>
<path opacity="0.166667" d="M1026.29 -29.574C1056.39 141.111 892.538 312.672 660.327 353.617C428.115 394.562 196.269 54.394 166.172 -116.291" stroke="#027EF4"/>
<path opacity="0.208333" d="M1022.28 -6.20732C1037.39 166.452 859.211 323.079 624.314 343.63C389.418 364.181 188.102 5.10023 172.996 -167.559" stroke="#027EF4"/>
<path opacity="0.25" d="M1015.15 17.7351C1015.15 191.054 823.997 331.556 588.203 331.556C352.409 331.556 183.155 -43.704 183.155 -217.023" stroke="#027EF4"/>
<path opacity="0.291667" d="M1004.84 41.9786C989.737 214.638 787.07 337.946 552.174 317.395C317.277 296.844 181.373 -91.7394 196.479 -264.398" stroke="#027EF4"/>
<path opacity="0.333333" d="M991.362 66.2452C961.266 236.931 748.623 342.106 516.411 301.161C284.199 260.216 182.68 -138.734 212.776 -309.42" stroke="#027EF4"/>
<path opacity="0.375" d="M974.713 90.2582C929.855 257.671 708.855 343.913 481.096 282.885C253.336 221.857 186.974 -184.422 231.832 -351.835" stroke="#027EF4"/>
<path opacity="0.416667" d="M954.925 113.743C895.647 276.61 667.971 343.262 446.397 262.616C224.823 181.969 194.123 -228.548 253.401 -391.414" stroke="#027EF4"/>
<path opacity="0.458333" d="M932.059 136.428C858.811 293.508 626.193 340.063 412.491 240.413C198.789 140.762 203.984 -270.869 277.232 -427.949" stroke="#027EF4"/>
<path opacity="0.5" d="M906.196 158.046C819.537 308.145 583.746 334.249 379.542 216.352C175.339 98.4552 216.39 -311.157 303.05 -461.255" stroke="#027EF4"/>
<path opacity="0.541667" d="M877.444 178.344C778.033 320.319 540.864 325.773 347.713 190.527C154.562 55.2814 231.157 -349.194 330.569 -491.168" stroke="#027EF4"/>
<path opacity="0.583333" d="M845.923 197.071C734.516 329.841 497.774 314.604 317.146 163.038C136.517 11.473 248.073 -384.787 359.48 -517.557" stroke="#027EF4"/>
<path opacity="0.625" d="M811.784 213.994C689.229 336.549 454.717 300.737 287.985 134.005C121.254 -32.7262 266.922 -417.756 389.477 -540.311" stroke="#027EF4"/>
<path opacity="0.666667" d="M775.194 228.891C642.425 340.298 411.925 284.182 260.36 103.554C108.795 -77.0748 287.466 -447.944 420.236 -559.351" stroke="#027EF4"/>
<path opacity="0.708333" d="M736.34 241.556C594.365 340.967 369.634 264.976 234.388 71.8253C99.1423 -121.326 309.457 -475.211 451.431 -574.623" stroke="#027EF4"/>
<path opacity="0.75" d="M695.42 251.8C545.322 338.459 328.068 243.171 210.172 38.9675C92.2746 -165.236 332.632 -499.445 482.731 -586.104" stroke="#027EF4"/>
<path opacity="0.791667" d="M652.658 259.452C495.578 332.7 287.457 218.839 187.806 5.13749C88.1549 -208.564 356.726 -520.553 513.806 -593.8" stroke="#027EF4"/>
<path opacity="0.833333" d="M608.287 264.364C445.421 323.642 248.015 192.076 167.369 -29.498C86.7223 -251.072 381.463 -538.465 544.329 -597.744" stroke="#027EF4"/>
<path opacity="0.875" d="M562.549 266.401C395.136 311.259 209.948 162.989 148.92 -64.7708C87.8922 -292.53 406.559 -553.142 573.972 -598" stroke="#027EF4"/>
<path opacity="0.916667" d="M515.7 265.46C345.014 295.557 173.453 131.71 132.508 -100.502C91.5631 -332.714 431.731 -564.56 602.417 -594.656" stroke="#027EF4"/>
<path opacity="0.958333" d="M468.007 261.452C295.348 276.558 138.72 98.3824 118.169 -136.514C97.6187 -371.411 456.699 -572.727 629.358 -587.833" stroke="#027EF4"/>
<path d="M419.737 254.317C246.418 254.317 105.916 63.1685 105.916 -172.625C105.916 -408.419 481.176 -577.674 654.495 -577.674" stroke="#027EF4"/>
</svg>
