<svg width="1170" height="166" viewBox="0 0 1170 166" fill="none" xmlns="http://www.w3.org/2000/svg">
<path opacity="0.0416667" d="M1020.28 439.338C1093.53 282.258 979.667 74.1367 765.965 -25.5141C552.264 -125.165 240.275 143.406 167.028 300.486" stroke="#E4572E"/>
<path opacity="0.0833333" d="M1025.19 419.292C1084.47 256.426 952.905 59.0198 731.332 -21.6265C509.758 -102.273 222.364 192.468 163.086 355.334" stroke="#E4572E"/>
<path opacity="0.125" d="M1027.23 397.882C1072.09 230.469 923.818 45.2816 696.059 -15.7464C468.3 -76.7743 207.688 241.893 162.83 409.306" stroke="#E4572E"/>
<path opacity="0.166667" d="M1026.29 375.361C1056.38 204.676 892.538 33.115 660.326 -7.83014C428.115 -48.7753 196.268 291.393 166.172 462.079" stroke="#E4572E"/>
<path opacity="0.208333" d="M1022.28 351.994C1037.39 179.335 859.21 22.7076 624.313 2.15677C389.417 -18.394 188.101 340.687 172.995 513.346" stroke="#E4572E"/>
<path opacity="0.25" d="M1015.15 328.053C1015.15 154.734 823.996 14.2314 588.202 14.2314C352.409 14.2314 183.154 389.492 183.154 562.81" stroke="#E4572E"/>
<path opacity="0.291667" d="M1004.84 303.808C989.736 131.149 787.069 7.84127 552.173 28.3921C317.276 48.9429 181.372 437.526 196.478 610.186" stroke="#E4572E"/>
<path opacity="0.333333" d="M991.363 279.542C961.267 108.856 748.624 3.68109 516.412 44.6263C284.2 85.5715 182.681 484.521 212.777 655.207" stroke="#E4572E"/>
<path opacity="0.375" d="M974.714 255.529C929.856 88.1162 708.856 1.87418 481.096 62.9021C253.337 123.93 186.974 530.21 231.832 697.623" stroke="#E4572E"/>
<path opacity="0.416667" d="M954.924 232.044C895.646 69.1776 667.97 2.52516 446.396 83.1714C224.822 163.818 194.122 574.335 253.4 737.201" stroke="#E4572E"/>
<path opacity="0.458333" d="M932.059 209.359C858.811 52.2787 626.193 5.72313 412.491 105.374C198.789 205.025 203.984 616.656 277.232 773.736" stroke="#E4572E"/>
<path opacity="0.5" d="M906.195 187.741C819.536 37.6423 583.745 11.538 379.542 129.435C175.338 247.332 216.39 656.944 303.049 807.042" stroke="#E4572E"/>
<path opacity="0.541667" d="M877.445 167.443C778.034 25.4685 540.865 20.014 347.714 155.26C154.563 290.506 231.158 694.981 330.57 836.955" stroke="#E4572E"/>
<path opacity="0.583333" d="M845.924 148.716C734.517 15.9461 497.775 31.183 317.146 182.748C136.518 334.314 248.074 730.574 359.481 863.344" stroke="#E4572E"/>
<path opacity="0.625" d="M811.784 131.793C689.229 9.23798 454.716 45.0503 287.985 211.782C121.253 378.513 266.921 763.543 389.476 886.098" stroke="#E4572E"/>
<path opacity="0.666667" d="M775.194 116.897C642.425 5.48989 411.925 61.6051 260.36 242.234C108.795 422.862 287.466 793.731 420.236 905.138" stroke="#E4572E"/>
<path opacity="0.708333" d="M736.34 104.231C594.366 4.81976 369.634 80.8107 234.389 273.962C99.1427 467.113 309.458 820.998 451.432 920.41" stroke="#E4572E"/>
<path opacity="0.75" d="M695.419 93.987C545.321 7.32765 328.068 102.616 210.171 306.82C92.2736 511.023 332.631 845.232 482.73 931.891" stroke="#E4572E"/>
<path opacity="0.791667" d="M652.658 86.3348C495.578 13.0872 287.457 126.948 187.806 340.65C88.1549 554.352 356.726 866.34 513.806 939.587" stroke="#E4572E"/>
<path opacity="0.833333" d="M608.287 81.4238C445.421 22.1453 248.015 153.712 167.369 375.285C86.7223 596.859 381.463 884.253 544.329 943.531" stroke="#E4572E"/>
<path opacity="0.875" d="M562.549 79.3859C395.136 34.5277 209.948 182.799 148.92 410.558C87.8922 638.317 406.559 898.929 573.972 943.787" stroke="#E4572E"/>
<path opacity="0.916667" d="M515.699 80.327C345.014 50.2306 173.453 214.077 132.508 446.289C91.5626 678.501 431.731 910.347 602.416 940.443" stroke="#E4572E"/>
<path opacity="0.958333" d="M468.007 84.3351C295.348 69.2294 138.72 247.405 118.169 482.302C97.6187 717.198 456.699 918.515 629.358 933.62" stroke="#E4572E"/>
<path d="M419.737 91.4699C246.418 91.4699 105.916 282.619 105.916 518.413C105.916 754.206 481.176 923.461 654.495 923.461" stroke="#E4572E"/>
</svg>
